<svg width="51" height="37" viewBox="0 0 51 37" fill="none" xmlns="http://www.w3.org/2000/svg">
<g clip-path="url(#clip0_174_6592)">
<path d="M9.93 5.988C9.93 5.19467 9.88467 4.56 9.794 4.084C9.726 3.58533 9.56733 3.2 9.318 2.928C9.09133 2.63333 8.75133 2.44067 8.298 2.35C7.84467 2.23667 7.25533 2.15733 6.53 2.112V0.819999H16.866V2.112C16.1407 2.13467 15.5513 2.20267 15.098 2.316C14.6673 2.42933 14.3273 2.63333 14.078 2.928C13.8513 3.22267 13.6927 3.63066 13.602 4.152C13.534 4.67333 13.5 5.36467 13.5 6.226V27.068C13.5 29.924 12.8993 32.1 11.698 33.596C10.4967 35.092 8.74 35.84 6.428 35.84C4.864 35.84 3.61733 35.534 2.688 34.922C1.736 34.3327 1.26 33.5393 1.26 32.542C1.26 31.9527 1.41867 31.4993 1.736 31.182C2.03067 30.8873 2.45 30.74 2.994 30.74C3.42467 30.74 3.776 30.842 4.048 31.046C4.29733 31.2727 4.592 31.7033 4.932 32.338C5.31733 33.0633 5.646 33.5507 5.918 33.8C6.21267 34.072 6.58667 34.208 7.04 34.208C7.96933 34.208 8.68333 33.7093 9.182 32.712C9.68067 31.7147 9.93 30.298 9.93 28.462V5.988ZM33.6809 20.914L42.5209 0.819999H50.1369V2.112C49.4115 2.13467 48.8222 2.22533 48.3689 2.384C47.9382 2.54267 47.5982 2.81467 47.3489 3.2C47.1222 3.56267 46.9635 4.07267 46.8729 4.73C46.8049 5.38733 46.7709 6.226 46.7709 7.246V20.574C46.7709 21.7073 46.8162 22.6027 46.9069 23.26C46.9975 23.9173 47.1675 24.4273 47.4169 24.79C47.6889 25.1527 48.0629 25.3907 48.5389 25.504C49.0375 25.6173 49.6835 25.6853 50.4769 25.708V27H39.4609V25.708C40.2542 25.6853 40.8889 25.6173 41.3649 25.504C41.8635 25.368 42.2489 25.13 42.5209 24.79C42.7929 24.45 42.9742 23.974 43.0649 23.362C43.1555 22.7273 43.2009 21.8773 43.2009 20.812V5.036H42.8609L32.9329 27.34H32.1849L22.4269 5.036H22.2909V20.574C22.2909 21.7073 22.3362 22.6027 22.4269 23.26C22.5175 23.9173 22.6875 24.4273 22.9369 24.79C23.2089 25.1527 23.5829 25.3907 24.0589 25.504C24.5575 25.6173 25.2035 25.6853 25.9969 25.708V27H16.5109V25.708C17.3042 25.6853 17.9389 25.6173 18.4149 25.504C18.9135 25.368 19.2989 25.13 19.5709 24.79C19.8429 24.45 20.0242 23.974 20.1149 23.362C20.2055 22.7273 20.2509 21.8773 20.2509 20.812V7.008C20.2509 6.056 20.2055 5.274 20.1149 4.662C20.0469 4.02733 19.8882 3.52866 19.6389 3.166C19.4122 2.80333 19.0722 2.554 18.6189 2.418C18.1655 2.25933 17.5762 2.15733 16.8509 2.112V0.819999H24.9769L33.5449 20.914H33.6809Z" fill="#784E73"/>
</g>
<defs>
<clipPath id="clip0_174_6592">
<rect width="51" height="37" fill="white"/>
</clipPath>
</defs>
</svg>