<svg width="311" height="401" viewBox="0 0 311 401" fill="none" xmlns="http://www.w3.org/2000/svg">
  <path d="M196.26 235.507C196.261 235.479 196.605 234.8 197.16 233.722C197.179 233.732 197.198 233.742 197.218 233.753C197.309 233.802 197.519 233.924 197.727 234.149L196.26 235.507ZM196.26 235.507C196.258 235.533 197.012 235.584 198.255 235.647L196.26 235.507ZM120.392 206.922C120.409 206.964 120.426 207.006 120.444 207.048C119.213 206.595 117.773 206.054 116.242 205.47C104.731 201.074 92.6745 196.798 78.891 192.222C54.2089 184.027 43.9689 180.007 31.0905 173.49C28.6173 172.238 26.2206 170.921 24.4576 169.872C24.2986 169.777 24.1457 169.685 23.9992 169.596C25.1561 169.023 26.5556 168.408 27.8171 167.945C35.2263 165.222 44.9582 163.607 53.7029 163.673C58.3376 163.708 62.6814 164.417 66.3059 165.63C69.9564 166.851 72.7417 168.538 74.4161 170.427C75.141 171.245 76.2621 173.095 77.285 175.334C79.328 179.805 81.3807 182.385 84.7842 184.164C86.2562 184.933 87.4635 185.347 88.9388 185.185C92.0977 184.838 94.2435 182.473 95.3003 179.669C96.3621 176.853 96.4741 173.315 95.4979 169.796C93.9608 164.254 90.4112 158.591 86.1233 154.858C78.0129 147.797 64.1413 143.856 50.4436 144.404C39.56 144.84 29.3451 146.822 21.1644 149.877C13.0798 152.895 6.61401 157.1 3.74913 162.24C3.16724 163.284 2.72559 164.107 2.46381 165.13C2.21535 166.1 2.14947 167.177 2.07161 168.686C1.99439 170.183 1.95228 171.255 2.09077 172.23C2.23778 173.266 2.57416 174.108 3.02171 175.158C5.30207 180.51 10.9344 184.769 21.692 190.321C34.8592 197.117 47.6767 202.196 71.1081 209.933C95.2218 217.895 113.12 224.6 131.232 232.453C134.5 233.87 136.693 234.787 138.252 235.359C139.797 235.925 140.88 236.215 141.881 236.266C144.607 236.404 146.571 235.949 148.566 234.468C149.762 233.579 150.711 232.55 151.364 231.256C152.012 229.975 152.306 228.561 152.386 226.997C152.474 225.279 152.344 223.871 151.527 222.067C150.782 220.423 149.469 218.459 147.398 215.529C143.188 209.572 140.523 204.935 138.317 199.777C131.768 184.466 130.535 166.26 134.691 142.679C142.993 95.5764 157.094 65.2112 171.603 49.1756C178.853 41.1626 186.087 36.8528 192.635 35.6524C199.105 34.4663 205.115 36.271 210.184 40.9398C220.489 50.4302 227.035 71.9691 223.826 104.229C220.632 136.346 207.797 178.621 180.036 228.934L176.387 235.549L175.405 235.693C170.513 236.413 160.669 238.551 154.737 240.177C126.605 247.89 96.8107 262.574 72.0405 280.918C35.5797 307.919 15.2925 334.374 7.79358 355.402C4.04437 365.916 3.43798 375.235 5.8135 382.606C8.21685 390.064 13.6165 395.327 21.3564 397.654C29.0123 399.954 38.8191 399.351 50.1869 395.503C61.575 391.648 74.6669 384.493 88.9991 373.487C117.664 351.474 151.461 313.922 186.719 255.985L188.171 253.599L189.529 253.444C197.409 252.545 211.733 253.212 219.886 254.865C279.683 266.986 295.912 307.662 300.271 326.091C300.847 328.525 301.323 330.306 301.896 331.366C302.186 331.901 302.722 332.686 303.708 332.994C304.733 333.315 305.604 332.927 306.06 332.672C306.934 332.182 307.339 331.316 307.555 330.72C307.796 330.053 307.974 329.215 308.122 328.233C308.42 326.256 308.655 323.294 308.891 319.036C310.534 289.454 293.384 268.434 271.559 254.765C249.767 241.119 223.014 234.576 204.525 233.908C202.595 233.838 200.819 233.765 199.422 233.701C199.931 232.717 200.547 231.535 201.209 230.27C228.683 177.777 241.434 131.609 244.084 94.791C246.727 58.0538 239.324 30.3376 226.09 15.103C219.44 7.44661 211.284 2.92063 202.241 2.12592C193.216 1.33274 183.561 4.27801 173.92 11.0791C154.696 24.6395 135.171 53.7536 119.824 100.995C115.423 114.543 112.16 133.358 111.57 147.811C110.686 169.471 113.595 190.459 120.392 206.922ZM162.677 258.005C162.216 258.715 161.71 259.49 161.179 260.298C123.698 317.292 92.6961 348.71 70.4074 363.053C59.236 370.242 50.476 372.997 44.3073 372.775C41.2578 372.665 38.8959 371.832 37.1401 370.507C35.3889 369.185 34.1089 367.276 33.382 364.783C31.907 359.723 32.7505 352.332 36.6487 343.459C40.5231 334.64 47.3225 324.58 57.3784 314.323C77.4815 293.818 110.491 272.638 158.679 259.107C160.298 258.653 161.613 258.29 162.677 258.005Z" fill="url(#paint0_linear_114_37)" stroke="url(#paint1_linear_114_37)" stroke-width="4"/>
  <defs>
  <linearGradient id="paint0_linear_114_37" x1="65.4693" y1="13.5854" x2="349.616" y2="161.641" gradientUnits="userSpaceOnUse">
  <stop offset="0.317064" stop-color="#7354D9"/>
  <stop offset="0.883815" stop-color="#33FF00"/>
  </linearGradient>
  <linearGradient id="paint1_linear_114_37" x1="65.4693" y1="13.5854" x2="349.616" y2="161.641" gradientUnits="userSpaceOnUse">
  <stop offset="0.317064" stop-color="#7354D9"/>
  <stop offset="0.883815" stop-color="#33FF00"/>
  </linearGradient>
  </defs>
  </svg>
  