<svg width="100" height="0" viewBox="-50 -130 1000 1000" fill="none" xmlns="http://www.w3.org/2000/svg">
    <path d="M57.9526 232.459C78.5311 217.264 103.285 205.104 126.624 198.725C131.539 197.381 139.713 195.612 143.725 195.024L145.369 194.783L148.825 188.538C242.1 19.9912 135.655 -42.3818 107.752 115.452C104.238 135.328 105.245 150.877 110.897 164.053C112.801 168.491 115.096 172.464 118.671 177.507C122.176 182.452 122.67 183.538 122.541 186.029C122.423 188.33 121.694 189.768 120.017 191.01C118.729 191.963 117.495 192.284 115.504 192.184C114.346 192.125 112.65 191.505 107.171 189.136C91.9524 182.558 76.9214 176.944 56.7008 170.287C37.122 163.842 26.4869 159.635 15.5778 154.021C6.5427 149.372 2.3682 146.049 0.721298 142.195C-0.0261684 140.446 -0.0751838 140.102 0.0577209 137.534C0.192257 134.935 0.266918 134.644 1.25242 132.881C5.45642 125.36 21.0213 119.566 38.9447 118.85C50.1261 118.404 61.2718 121.633 67.6455 127.166C70.9836 130.064 73.7788 134.506 74.9791 138.82C76.4518 144.114 74.5432 149.162 70.919 149.559C70.1677 149.641 69.5128 149.466 68.3995 148.886C65.9975 147.635 64.4907 145.841 62.8692 142.302C61.9905 140.385 60.9701 138.663 60.198 137.794C56.8728 134.053 49.6877 131.655 41.6186 131.595C34.117 131.539 25.7685 132.914 19.3597 135.262C16.8544 136.18 13.7981 137.742 13.7788 138.115C13.7601 138.477 17.723 140.828 21.9214 142.946C32.8113 148.441 41.4743 151.827 62.1633 158.675C73.682 162.488 83.7507 166.049 93.3598 169.707C97.0838 171.125 100.184 172.237 100.248 172.179C100.313 172.121 99.7415 170.566 98.9785 168.723C93.4059 155.265 90.9862 138.003 91.7191 120.094C92.2069 108.175 94.9138 92.6224 98.5482 81.4682C149.754 -75.6854 255.254 13.4687 163.599 188.072C162.139 190.854 160.942 193.17 160.94 193.217C160.937 193.264 164.023 193.415 167.798 193.551C198.23 194.647 256.209 215.103 253.551 262.839C253.155 269.95 252.778 272.439 252.034 272.855C251.049 273.405 250.633 272.637 249.636 268.434C245.895 252.666 231.961 218.027 181.049 207.737C174.061 206.325 161.894 205.758 155.116 206.529L153.164 206.751L151.523 209.441C33.7548 402.386 -63.551 322.172 57.9526 232.459ZM132.972 214.825C134.738 212.148 136.186 209.882 136.191 209.79C136.212 209.387 134.869 209.672 129.028 211.307C-33.2927 256.748 7.26108 405.417 132.972 214.825ZM306.261 293.062C298.432 291.429 290.963 284.478 286.8 274.949C282.935 266.102 282.908 256.182 286.725 246.809C288.6 242.203 292.148 236.355 296.092 231.37C301.015 225.147 309.479 217.381 318.061 211.212C330.897 201.984 346.262 193.873 361.969 188.033C364.617 187.048 366.944 186.116 367.139 185.962C367.334 185.808 368.068 183.028 368.771 179.786C370.126 173.537 372.791 159.409 372.645 159.247C372.598 159.195 371.692 160.143 370.633 161.354C365.716 166.977 361.83 169.603 357.778 170.042C353.405 170.516 349.624 168.216 346.826 163.378C345.035 160.281 343.739 155.679 343.538 151.699C343.488 150.721 343.357 149.971 343.246 150.032C343.135 150.093 342.116 151.629 340.982 153.445C335.676 161.947 330.692 167.182 322.757 172.589C314.54 178.189 308.166 178.272 304.963 177.195C303.291 176.633 301.034 173.758 300.693 172.201C299.94 168.764 301.593 165.952 306.219 166.436C308.591 166.684 310.588 165.44 310.554 164.762C310.353 160.71 304.633 148.773 304.136 148.747C304.032 148.742 303.312 150.921 302.604 152.282C298.746 159.699 292.541 166.96 286.002 171.708C283.065 173.841 278.55 175.716 276.852 176.262C274.922 176.882 268.747 177.472 266.052 176.148C264.703 175.485 262.912 174.642 262.043 173.904C260.821 172.864 258.883 170.593 258.954 169.15C259.087 166.475 260.954 162.658 263.536 163.514C270.102 165.692 270.674 164.689 270.642 163.482C270.538 159.607 268.95 155.373 265.322 149.302C263.972 147.042 262.785 145.189 262.684 145.184C262.583 145.179 261.701 146.6 260.723 148.342C256.669 155.567 253.014 160.749 248.012 166.364C238.421 177.128 230.627 182.132 221.26 183.54C216.24 184.295 211.678 183.675 207.984 181.738L206.154 180.779L195.851 184.807C191.542 185.701 187.116 185.656 184.652 182.617C182.889 180.443 182.559 178.126 183.712 176.03C184.529 174.546 185.392 174.072 187.649 173.871C188.664 173.781 189.774 173.544 190.115 173.345C190.714 172.996 199.924 169.383 199.638 167.814C198.893 163.736 199.275 156.463 200.472 151.928C202.397 144.637 206.66 137.537 212.023 132.694C214.934 130.064 217.581 128.683 220.465 128.289C224.848 127.69 229.395 130.232 231.21 134.296C232.533 137.259 232.701 141.86 231.644 146.162C229.956 153.03 224.626 162.63 217.801 171.095C217.344 171.661 217.348 171.695 217.879 171.723C218.188 171.739 219.333 171.501 220.424 171.194C227.653 169.16 235.609 162.351 244.154 150.886C250.328 142.601 253.164 137.01 255.782 127.958C256.573 125.225 257.019 124.419 258.421 123.193C259.737 122.043 262.013 121.435 263.713 121.78C265.348 122.111 267.199 123.503 267.962 124.975C268.315 125.657 268.693 127.066 268.806 128.123C268.919 129.176 269.222 130.509 269.48 131.086C269.737 131.662 271.98 135.54 274.463 139.703C279.087 147.455 281.496 152.404 282.268 155.736C282.504 156.756 282.783 157.596 282.887 157.601C282.991 157.606 283.558 157.105 284.146 156.487C287.305 153.165 292.123 143.678 294.848 137.944C296.204 135.09 296.55 134.052 296.966 131.595C297.969 125.667 300.592 122.844 304.881 123.076C309.297 123.314 311.138 127.367 310.681 132.071C310.418 134.767 314.952 138.762 318.992 149.357C320.22 152.577 321.648 157.105 321.782 157.112C322.131 157.13 326.016 152.873 328.465 149.79C329.614 148.344 332.204 144.75 334.221 141.802C341.434 131.264 345.754 126.374 349.094 124.967C350.894 124.208 353.406 124.409 355.101 125.448C358.568 127.57 359.05 130.74 357.346 140.222C356.471 145.094 356.086 150.238 356.436 152.381C356.732 154.19 357.353 156.174 357.629 156.188C357.748 156.194 358.429 155.636 359.142 154.948C366.736 147.621 376.003 130.524 379.804 116.829C381.804 109.621 383.428 107.293 386.903 106.648C388.788 106.298 390.622 106.857 392.059 108.22C394.582 110.613 394.741 112.882 392.816 119.027C391.435 123.436 391.057 125.429 388.725 140.593C386.89 152.531 384.611 165.716 382.745 175.193C382.111 178.415 381.653 181.12 381.728 181.203C381.803 181.286 383.616 180.876 385.757 180.291C395.158 177.722 406.453 175.276 414.732 174.016L419.123 173.348L421.06 169.992C422.125 168.146 424.881 163.55 427.184 159.778C432.239 151.5 433.479 149.329 434.255 147.408C435.012 145.533 435.019 145.202 434.304 145.165C433.19 145.107 427.717 146.554 419.846 148.988C410.885 151.759 408.454 152.265 405.6 151.956C403.812 151.762 403.583 151.665 402.894 150.811C401.816 149.473 401.924 147.768 403.167 146.493C403.661 145.987 404.342 145.502 404.681 145.417C405.02 145.331 407.98 144.151 411.259 142.794C427.285 136.16 435.531 134.311 440.15 136.314C445.17 138.491 446.925 144.25 444.728 151.341C443.606 154.961 442.179 157.978 438.123 165.305C436.202 168.775 434.629 171.63 434.628 171.65C434.628 171.67 439.021 171.913 444.393 172.19C452.006 172.582 454.959 172.839 457.785 173.355C469.07 175.415 477.072 178.744 485.952 185.072C487.419 186.118 488.02 186.716 487.999 187.111C487.962 187.833 487.756 187.772 482.777 185.57C475.855 182.508 470.738 181.132 462.686 180.168C455.315 179.285 445.176 179.48 434.576 180.708C428.777 181.38 429.601 180.803 426.574 186.307C418.759 200.522 413.153 212.319 409.555 222.119C406.366 230.806 405.326 235.319 405.286 240.647C405.262 243.904 405.048 244.564 404.148 244.164C403.449 243.854 401.128 240.176 400.248 237.985C398.756 234.266 398.404 231.961 398.522 226.682C398.639 221.476 399.007 219.356 400.812 213.513C402.737 207.279 407.783 195.175 411.832 187.074C412.83 185.078 412.995 184.568 412.646 184.55C411.399 184.485 395.68 188.689 388.484 191.012C381.092 193.398 378.449 194.451 378.277 195.081C374.304 209.578 371.786 217.463 368.33 226.233C361.889 242.572 353.717 258.052 346.23 268.092C342.295 273.37 339.309 276.627 333.935 281.505C327.525 287.323 323.345 290.122 318.418 291.894C314.483 293.31 309.667 293.772 306.261 293.062ZM313.569 280.02C319.003 278.287 327.581 271.106 334.386 262.594C342.571 252.354 352.399 233.404 358.682 215.746C360.708 210.05 363.453 201.139 363.251 200.915C363.057 200.701 360.967 201.598 355.149 204.392C325.671 218.551 306.449 234.412 298.806 250.883C294.501 260.16 295.399 269.623 301.201 276.129C305.112 280.514 308.589 281.608 313.569 280.02ZM215.233 152.306C217.655 147.986 218.914 144.999 219.312 142.626L219.558 141.155L218.067 142.565C213.808 146.594 211.03 152.029 210.447 157.468L210.167 160.089L211.566 158.22C212.336 157.191 213.986 154.53 215.233 152.306Z" fill="url(#paint0_linear_105_9)"/>
    <defs>
    <linearGradient id="paint0_linear_105_9" x1="99" y1="8" x2="255" y2="352.5" gradientUnits="userSpaceOnUse">
    <stop offset="0.317064" stop-color="#7354D9"/>
    <stop offset="0.883815" stop-color="#33FF00"/>
    </linearGradient>
    </defs>
    </svg>