<svg width="223" height="36" viewBox="0 0 223 36" fill="none" xmlns="http://www.w3.org/2000/svg">
<path d="M209.634 19.7399L208.751 18.2399L221.023 15.9559L222.251 17.2399L209.634 19.7399Z" fill="currentColor"/>
<path d="M8.92977 5.98794C8.92977 5.19461 8.88443 4.55994 8.79377 4.08394C8.72577 3.58527 8.5671 3.19994 8.31777 2.92794C8.0911 2.63328 7.7511 2.44061 7.29777 2.34994C6.84443 2.23661 6.2551 2.15728 5.52977 2.11194V0.819941H15.8658V2.11194C15.1404 2.13461 14.5511 2.20261 14.0978 2.31594C13.6671 2.42928 13.3271 2.63328 13.0778 2.92794C12.8511 3.22261 12.6924 3.63061 12.6018 4.15194C12.5338 4.67327 12.4998 5.36461 12.4998 6.22594V27.0679C12.4998 29.9239 11.8991 32.0999 10.6978 33.5959C9.49643 35.0919 7.73977 35.8399 5.42777 35.8399C3.86377 35.8399 2.6171 35.5339 1.68777 34.9219C0.735766 34.3326 0.259766 33.5393 0.259766 32.5419C0.259766 31.9526 0.418432 31.4993 0.735766 31.1819C1.03043 30.8873 1.44977 30.7399 1.99377 30.7399C2.42443 30.7399 2.77577 30.8419 3.04777 31.0459C3.2971 31.2726 3.59177 31.7033 3.93177 32.3379C4.3171 33.0633 4.64577 33.5506 4.91777 33.7999C5.21243 34.0719 5.58643 34.2079 6.03977 34.2079C6.9691 34.2079 7.6831 33.7093 8.18177 32.7119C8.68043 31.7146 8.92977 30.2979 8.92977 28.4619V5.98794Z" fill="currentColor"/>
<path d="M30.6846 24.0239C28.8713 26.2213 26.6206 27.3199 23.9326 27.3199C22.674 27.3199 21.5326 27.1173 20.5086 26.7119C19.4846 26.2853 18.5993 25.6986 17.8526 24.9519C17.1273 24.1839 16.562 23.2773 16.1566 22.2319C15.7513 21.1653 15.5486 19.9919 15.5486 18.7119C15.5486 17.4106 15.762 16.2053 16.1886 15.0959C16.6153 13.9866 17.2126 13.0373 17.9806 12.2479C18.77 11.4586 19.698 10.8399 20.7646 10.3919C21.8526 9.94394 23.0366 9.71994 24.3166 9.71994C26.386 9.71994 27.986 10.2853 29.1166 11.4159C30.2473 12.5253 30.8126 14.1253 30.8126 16.2159C30.8126 16.5146 30.7486 16.6959 30.6206 16.7599C30.514 16.8239 30.2473 16.8559 29.8206 16.8559H19.2926C19.25 17.0266 19.218 17.2399 19.1966 17.4959C19.1753 17.7306 19.1646 17.9973 19.1646 18.2959C19.1646 19.4053 19.2926 20.4186 19.5486 21.3359C19.826 22.2319 20.21 22.9999 20.7006 23.6399C21.2126 24.2799 21.81 24.7813 22.4926 25.1439C23.1966 25.4853 23.9753 25.6559 24.8286 25.6559C25.7246 25.6559 26.5566 25.4639 27.3246 25.0799C28.0926 24.6746 28.882 24.0239 29.6926 23.1279L30.6846 24.0239ZM25.4046 15.3839C25.8313 15.3839 26.1726 15.3733 26.4286 15.3519C26.6846 15.3306 26.8766 15.2879 27.0046 15.2239C27.1326 15.1599 27.218 15.0746 27.2606 14.9679C27.3033 14.8399 27.3246 14.6799 27.3246 14.4879C27.3246 13.5066 27.0046 12.7279 26.3646 12.1519C25.746 11.5546 24.8926 11.2559 23.8046 11.2559C21.5006 11.2559 20.0713 12.6319 19.5166 15.3839H25.4046Z" fill="currentColor"/>
<path d="M32.8364 26.9999H32.1324V21.4959H32.9324C33.7644 24.5039 35.279 26.0079 37.4764 26.0079C38.3297 26.0079 39.0017 25.8053 39.4924 25.3999C40.0044 24.9733 40.2604 24.3333 40.2604 23.4799C40.2604 23.1599 40.207 22.8933 40.1004 22.6799C40.015 22.4453 39.8337 22.2106 39.5564 21.9759C39.3004 21.7199 38.927 21.4319 38.4364 21.1119C37.967 20.7919 37.3377 20.3866 36.5484 19.8959C35.823 19.4479 35.1937 19.0319 34.6604 18.6479C34.127 18.2639 33.679 17.8799 33.3164 17.4959C32.9537 17.0906 32.6764 16.6639 32.4844 16.2159C32.3137 15.7679 32.2284 15.2453 32.2284 14.6479C32.2284 13.9226 32.3457 13.2613 32.5804 12.6639C32.8364 12.0453 33.1777 11.5226 33.6044 11.0959C34.031 10.6693 34.5324 10.3386 35.1084 10.1039C35.6844 9.84794 36.3137 9.71994 36.9964 9.71994C37.5724 9.71994 38.1697 9.81594 38.7884 10.0079C39.407 10.1786 39.951 10.4133 40.4204 10.7119L41.0604 10.0399H41.6684V14.6479H40.8364C40.367 13.3466 39.855 12.4186 39.3004 11.8639C38.7457 11.3093 38.063 11.0319 37.2524 11.0319C36.527 11.0319 35.9404 11.2239 35.4924 11.6079C35.0657 11.9919 34.8524 12.5253 34.8524 13.2079C34.8524 13.5706 34.9057 13.8906 35.0124 14.1679C35.1404 14.4239 35.3324 14.6799 35.5884 14.9359C35.8444 15.1919 36.1644 15.4586 36.5484 15.7359C36.9537 15.9919 37.4337 16.2906 37.9884 16.6319C38.9057 17.2079 39.6844 17.7199 40.3244 18.1679C40.9857 18.6159 41.519 19.0639 41.9244 19.5119C42.3297 19.9386 42.6284 20.3866 42.8204 20.8559C43.0124 21.3253 43.1084 21.8586 43.1084 22.4559C43.1084 23.9706 42.6177 25.1653 41.6364 26.0399C40.655 26.8933 39.3644 27.3199 37.7644 27.3199C36.1004 27.3199 34.671 26.8399 33.4764 25.8799L32.8364 26.9999Z" fill="currentColor"/>
<path d="M45.1276 26.9999H44.4236V21.4959H45.2236C46.0556 24.5039 47.5703 26.0079 49.7676 26.0079C50.621 26.0079 51.293 25.8053 51.7836 25.3999C52.2956 24.9733 52.5516 24.3333 52.5516 23.4799C52.5516 23.1599 52.4983 22.8933 52.3916 22.6799C52.3063 22.4453 52.125 22.2106 51.8476 21.9759C51.5916 21.7199 51.2183 21.4319 50.7276 21.1119C50.2583 20.7919 49.629 20.3866 48.8396 19.8959C48.1143 19.4479 47.485 19.0319 46.9516 18.6479C46.4183 18.2639 45.9703 17.8799 45.6076 17.4959C45.245 17.0906 44.9676 16.6639 44.7756 16.2159C44.605 15.7679 44.5196 15.2453 44.5196 14.6479C44.5196 13.9226 44.637 13.2613 44.8716 12.6639C45.1276 12.0453 45.469 11.5226 45.8956 11.0959C46.3223 10.6693 46.8236 10.3386 47.3996 10.1039C47.9756 9.84794 48.605 9.71994 49.2876 9.71994C49.8636 9.71994 50.461 9.81594 51.0796 10.0079C51.6983 10.1786 52.2423 10.4133 52.7116 10.7119L53.3516 10.0399H53.9596V14.6479H53.1276C52.6583 13.3466 52.1463 12.4186 51.5916 11.8639C51.037 11.3093 50.3543 11.0319 49.5436 11.0319C48.8183 11.0319 48.2316 11.2239 47.7836 11.6079C47.357 11.9919 47.1436 12.5253 47.1436 13.2079C47.1436 13.5706 47.197 13.8906 47.3036 14.1679C47.4316 14.4239 47.6236 14.6799 47.8796 14.9359C48.1356 15.1919 48.4556 15.4586 48.8396 15.7359C49.245 15.9919 49.725 16.2906 50.2796 16.6319C51.197 17.2079 51.9756 17.7199 52.6156 18.1679C53.277 18.6159 53.8103 19.0639 54.2156 19.5119C54.621 19.9386 54.9196 20.3866 55.1116 20.8559C55.3036 21.3253 55.3996 21.8586 55.3996 22.4559C55.3996 23.9706 54.909 25.1653 53.9276 26.0399C52.9463 26.8933 51.6556 27.3199 50.0556 27.3199C48.3916 27.3199 46.9623 26.8399 45.7676 25.8799L45.1276 26.9999Z" fill="currentColor"/>
<path d="M61.9629 21.9119C61.9629 22.7439 61.9949 23.4159 62.0589 23.9279C62.1442 24.4186 62.2935 24.8133 62.5069 25.1119C62.7202 25.3893 63.0189 25.5813 63.4029 25.6879C63.7869 25.7946 64.2989 25.8586 64.9389 25.8799V26.9999H55.7549V25.8799C56.3949 25.8586 56.9175 25.7946 57.3229 25.6879C57.7282 25.5599 58.0375 25.3679 58.2509 25.1119C58.4855 24.8346 58.6349 24.4613 58.6989 23.9919C58.7842 23.5013 58.8269 22.8826 58.8269 22.1359V18.0399C58.8269 16.8026 58.8055 15.7893 58.7629 14.9999C58.7415 14.1893 58.6882 13.6346 58.6029 13.3359C58.4962 12.8453 58.2509 12.5146 57.8669 12.3439C57.4829 12.1519 56.7575 12.0559 55.6909 12.0559V10.9359L61.9629 9.71994V21.9119ZM58.2829 3.22394C58.2829 2.66927 58.4749 2.19994 58.8589 1.81594C59.2429 1.43194 59.7122 1.23994 60.2669 1.23994C60.8215 1.23994 61.2909 1.43194 61.6749 1.81594C62.0589 2.19994 62.2509 2.66927 62.2509 3.22394C62.2509 3.77861 62.0589 4.24794 61.6749 4.63194C61.2909 5.01594 60.8215 5.20794 60.2669 5.20794C59.7122 5.20794 59.2429 5.01594 58.8589 4.63194C58.4749 4.24794 58.2829 3.77861 58.2829 3.22394Z" fill="currentColor"/>
<path d="M79.5251 24.3439C78.7571 25.2826 77.7651 26.0186 76.5491 26.5519C75.3331 27.0639 74.0211 27.3199 72.6131 27.3199C71.4825 27.3199 70.4371 27.1173 69.4771 26.7119C68.5385 26.2853 67.7278 25.6986 67.0451 24.9519C66.3625 24.1839 65.8291 23.2666 65.4451 22.1999C65.0825 21.1333 64.9011 19.9493 64.9011 18.6479C64.9011 17.2826 65.1145 16.0559 65.5411 14.9679C65.9678 13.8586 66.5651 12.9199 67.3331 12.1519C68.1225 11.3626 69.0611 10.7653 70.1491 10.3599C71.2585 9.93328 72.4745 9.71994 73.7971 9.71994C74.6291 9.71994 75.3865 9.79461 76.0691 9.94394C76.7518 10.0719 77.3385 10.2639 77.8291 10.5199C78.3411 10.7546 78.7358 11.0533 79.0131 11.4159C79.2905 11.7573 79.4291 12.1306 79.4291 12.5359C79.4291 12.9626 79.2905 13.2933 79.0131 13.5279C78.7358 13.7626 78.3518 13.8799 77.8611 13.8799C77.4771 13.8799 77.1571 13.8053 76.9011 13.6559C76.6451 13.4853 76.3145 13.1226 75.9091 12.5679C75.4825 12.0773 75.0665 11.7359 74.6611 11.5439C74.2771 11.3306 73.7758 11.2239 73.1571 11.2239C71.6425 11.2239 70.4905 11.8106 69.7011 12.9839C68.9331 14.1573 68.5491 15.8853 68.5491 18.1679C68.5491 20.6213 68.9758 22.4879 69.8291 23.7679C70.7038 25.0266 71.9731 25.6559 73.6371 25.6559C74.5331 25.6559 75.3758 25.4853 76.1651 25.1439C76.9545 24.7813 77.7545 24.2053 78.5651 23.4159L79.5251 24.3439Z" fill="currentColor"/>
<path d="M90.3774 17.5279C89.1614 17.9973 88.1267 18.4559 87.2734 18.9039C86.4414 19.3519 85.7694 19.7999 85.2574 20.2479C84.7454 20.6959 84.372 21.1439 84.1374 21.5919C83.924 22.0399 83.8174 22.4986 83.8174 22.9679C83.8174 23.6719 84.052 24.2479 84.5214 24.6959C84.9907 25.1439 85.6094 25.3679 86.3774 25.3679C86.932 25.3679 87.444 25.2293 87.9134 24.9519C88.404 24.6746 88.8307 24.3013 89.1934 23.8319C89.556 23.3413 89.844 22.7759 90.0574 22.1359C90.2707 21.4746 90.3774 20.7813 90.3774 20.0559V17.5279ZM90.3774 16.1519V14.8399C90.3774 12.2373 89.268 10.9359 87.0494 10.9359C86.6867 10.9359 86.3774 10.9679 86.1214 11.0319C85.8654 11.0959 85.652 11.2026 85.4814 11.3519C85.3107 11.5013 85.1507 11.7146 85.0014 11.9919C84.8734 12.2693 84.7454 12.6106 84.6174 13.0159C84.3827 13.6346 84.148 14.0506 83.9134 14.2639C83.7 14.4559 83.38 14.5519 82.9534 14.5519C81.8867 14.5519 81.3534 14.0186 81.3534 12.9519C81.3534 11.9279 81.8974 11.1386 82.9854 10.5839C84.0734 10.0079 85.62 9.71994 87.6254 9.71994C89.7587 9.71994 91.2734 10.1039 92.1694 10.8719C93.0654 11.6186 93.5134 12.8986 93.5134 14.7119V21.8799C93.5134 24.3119 93.9934 25.5279 94.9534 25.5279C95.252 25.5279 95.54 25.4959 95.8174 25.4319C96.0947 25.3466 96.3294 25.1439 96.5214 24.8239L96.9694 25.5919C96.7134 26.0826 96.244 26.4986 95.5614 26.8399C94.8787 27.1599 94.164 27.3199 93.4174 27.3199C92.4787 27.3199 91.7747 27.0213 91.3054 26.4239C90.8574 25.8266 90.6334 24.9839 90.6334 23.8959H90.4734C89.9187 24.9413 89.1507 25.7733 88.1694 26.3919C87.188 26.9893 86.1 27.2879 84.9054 27.2879C83.5614 27.2879 82.5054 26.9466 81.7374 26.2639C80.9694 25.5813 80.5854 24.6639 80.5854 23.5119C80.5854 22.9999 80.6707 22.5093 80.8414 22.0399C81.0334 21.5706 81.332 21.1226 81.7374 20.6959C82.1427 20.2693 82.676 19.8533 83.3374 19.4479C83.9987 19.0213 84.8094 18.5946 85.7694 18.1679L90.3774 16.1519Z" fill="currentColor"/>
<path d="M119.992 20.9139L128.832 0.819941H136.448V2.11194C135.723 2.13461 135.133 2.22528 134.68 2.38394C134.249 2.54261 133.909 2.81461 133.66 3.19994C133.433 3.56261 133.275 4.07261 133.184 4.72994C133.116 5.38727 133.082 6.22594 133.082 7.24594V20.5739C133.082 21.7073 133.127 22.6026 133.218 23.2599C133.309 23.9173 133.479 24.4273 133.728 24.7899C134 25.1526 134.374 25.3906 134.85 25.5039C135.349 25.6173 135.995 25.6853 136.788 25.7079V26.9999H125.772V25.7079C126.565 25.6853 127.2 25.6173 127.676 25.5039C128.175 25.3679 128.56 25.1299 128.832 24.7899C129.104 24.4499 129.285 23.9739 129.376 23.3619C129.467 22.7273 129.512 21.8773 129.512 20.8119V5.03594H129.172L119.244 27.3399H118.496L108.738 5.03594H108.602V20.5739C108.602 21.7073 108.647 22.6026 108.738 23.2599C108.829 23.9173 108.999 24.4273 109.248 24.7899C109.52 25.1526 109.894 25.3906 110.37 25.5039C110.869 25.6173 111.515 25.6853 112.308 25.7079V26.9999H102.822V25.7079C103.615 25.6853 104.25 25.6173 104.726 25.5039C105.225 25.3679 105.61 25.1299 105.882 24.7899C106.154 24.4499 106.335 23.9739 106.426 23.3619C106.517 22.7273 106.562 21.8773 106.562 20.8119V7.00794C106.562 6.05594 106.517 5.27394 106.426 4.66194C106.358 4.02727 106.199 3.52861 105.95 3.16594C105.723 2.80328 105.383 2.55394 104.93 2.41794C104.477 2.25928 103.887 2.15728 103.162 2.11194V0.819941H111.288L119.856 20.9139H119.992Z" fill="currentColor"/>
<path d="M151.651 24.0239C149.837 26.2213 147.587 27.3199 144.899 27.3199C143.64 27.3199 142.499 27.1173 141.475 26.7119C140.451 26.2853 139.565 25.6986 138.819 24.9519C138.093 24.1839 137.528 23.2773 137.123 22.2319C136.717 21.1653 136.515 19.9919 136.515 18.7119C136.515 17.4106 136.728 16.2053 137.155 15.0959C137.581 13.9866 138.179 13.0373 138.947 12.2479C139.736 11.4586 140.664 10.8399 141.731 10.3919C142.819 9.94394 144.003 9.71994 145.283 9.71994C147.352 9.71994 148.952 10.2853 150.083 11.4159C151.213 12.5253 151.779 14.1253 151.779 16.2159C151.779 16.5146 151.715 16.6959 151.587 16.7599C151.48 16.8239 151.213 16.8559 150.787 16.8559H140.259C140.216 17.0266 140.184 17.2399 140.163 17.4959C140.141 17.7306 140.131 17.9973 140.131 18.2959C140.131 19.4053 140.259 20.4186 140.515 21.3359C140.792 22.2319 141.176 22.9999 141.667 23.6399C142.179 24.2799 142.776 24.7813 143.459 25.1439C144.163 25.4853 144.941 25.6559 145.795 25.6559C146.691 25.6559 147.523 25.4639 148.291 25.0799C149.059 24.6746 149.848 24.0239 150.659 23.1279L151.651 24.0239ZM146.371 15.3839C146.797 15.3839 147.139 15.3733 147.395 15.3519C147.651 15.3306 147.843 15.2879 147.971 15.2239C148.099 15.1599 148.184 15.0746 148.227 14.9679C148.269 14.8399 148.291 14.6799 148.291 14.4879C148.291 13.5066 147.971 12.7279 147.331 12.1519C146.712 11.5546 145.859 11.2559 144.771 11.2559C142.467 11.2559 141.037 12.6319 140.483 15.3839H146.371ZM142.627 6.16794L146.787 2.35994C147.555 1.65594 148.269 1.30394 148.931 1.30394C149.293 1.30394 149.581 1.39994 149.795 1.59194C150.029 1.78394 150.147 2.06128 150.147 2.42394C150.147 2.76528 149.997 3.07461 149.699 3.35194C149.421 3.60794 149.027 3.85327 148.515 4.08794L144.131 6.16794H142.627Z" fill="currentColor"/>
<path d="M157.962 21.9759C157.962 22.8506 157.984 23.5439 158.026 24.0559C158.069 24.5466 158.176 24.9306 158.346 25.2079C158.538 25.4639 158.805 25.6346 159.146 25.7199C159.509 25.8053 160 25.8693 160.618 25.9119V26.9999H152.234V25.9119C152.832 25.8693 153.301 25.8053 153.642 25.7199C154.005 25.6346 154.282 25.4639 154.474 25.2079C154.666 24.9519 154.784 24.5893 154.826 24.1199C154.89 23.6506 154.922 23.0106 154.922 22.1999V17.9439C154.922 15.4053 154.858 13.8586 154.73 13.3039C154.666 13.0266 154.581 12.8026 154.474 12.6319C154.389 12.4399 154.25 12.3013 154.058 12.2159C153.866 12.1093 153.621 12.0453 153.322 12.0239C153.024 11.9813 152.64 11.9599 152.17 11.9599V10.9359L157.29 9.71994L157.674 12.8879H157.802C158.613 11.8853 159.562 11.1066 160.65 10.5519C161.738 9.99728 162.922 9.71994 164.202 9.71994C165.184 9.71994 166.08 9.87994 166.89 10.1999C167.701 10.5199 168.32 10.9573 168.746 11.5119C169.109 12.0026 169.365 12.6426 169.514 13.4319C169.664 14.1999 169.738 15.2666 169.738 16.6319V21.9759C169.738 22.8506 169.76 23.5439 169.802 24.0559C169.866 24.5466 169.984 24.9306 170.154 25.2079C170.325 25.4639 170.581 25.6346 170.922 25.7199C171.285 25.8053 171.754 25.8693 172.33 25.9119V26.9999H164.042V25.9119C164.64 25.8906 165.109 25.8373 165.45 25.7519C165.813 25.6453 166.08 25.4639 166.25 25.2079C166.442 24.9519 166.56 24.5893 166.602 24.1199C166.666 23.6293 166.698 22.9893 166.698 22.1999V17.9759C166.698 16.7599 166.634 15.7359 166.506 14.9039C166.378 14.0719 166.165 13.3999 165.866 12.8879C165.589 12.3759 165.216 12.0133 164.746 11.7999C164.277 11.5653 163.712 11.4479 163.05 11.4479C162.09 11.4479 161.205 11.7039 160.394 12.2159C159.605 12.7066 158.986 13.3893 158.538 14.2639C158.432 14.4773 158.336 14.6799 158.25 14.8719C158.186 15.0639 158.133 15.2879 158.09 15.5439C158.048 15.7999 158.016 16.0986 157.994 16.4399C157.973 16.7599 157.962 17.1759 157.962 17.6879V21.9759Z" fill="currentColor"/>
<path d="M186.361 24.3119H186.233C185.465 25.3999 184.643 26.1786 183.769 26.6479C182.915 27.0959 181.902 27.3199 180.729 27.3199C179.513 27.3199 178.393 27.1066 177.369 26.6799C176.366 26.2319 175.491 25.6239 174.745 24.8559C174.019 24.0666 173.443 23.1279 173.017 22.0399C172.611 20.9519 172.409 19.7679 172.409 18.4879C172.409 17.2293 172.611 16.0666 173.017 14.9999C173.443 13.9119 174.019 12.9839 174.745 12.2159C175.491 11.4266 176.377 10.8186 177.401 10.3919C178.425 9.94394 179.534 9.71994 180.729 9.71994C181.753 9.71994 182.659 9.89061 183.449 10.2319C184.259 10.5733 185.038 11.1173 185.785 11.8639V8.59994C185.785 7.38394 185.763 6.37061 185.721 5.55994C185.699 4.74928 185.657 4.19461 185.593 3.89594C185.486 3.42661 185.187 3.09594 184.697 2.90394C184.206 2.71194 183.406 2.61594 182.297 2.61594V1.65594L188.857 0.439941V18.9039C188.857 20.3759 188.867 21.5919 188.889 22.5519C188.91 23.4906 188.974 24.1626 189.081 24.5679C189.145 24.8239 189.219 25.0373 189.305 25.2079C189.411 25.3786 189.55 25.5173 189.721 25.6239C189.913 25.7093 190.158 25.7733 190.457 25.8159C190.777 25.8586 191.182 25.8799 191.673 25.8799V26.9679L186.361 27.3199V24.3119ZM185.721 17.2399C185.721 16.1306 185.657 15.2879 185.529 14.7119C185.422 14.1359 185.198 13.6346 184.857 13.2079C184.366 12.5679 183.737 12.0879 182.969 11.7679C182.222 11.4266 181.475 11.2559 180.729 11.2559C179.193 11.2559 178.019 11.8959 177.209 13.1759C176.419 14.4346 176.025 16.1519 176.025 18.3279C176.025 19.4586 176.121 20.4826 176.313 21.3999C176.526 22.3173 176.825 23.1066 177.209 23.7679C177.614 24.4079 178.105 24.9093 178.681 25.2719C179.278 25.6133 179.961 25.7839 180.729 25.7839C181.113 25.7839 181.497 25.7413 181.881 25.6559C182.286 25.5706 182.67 25.4426 183.033 25.2719C183.417 25.0799 183.769 24.8666 184.089 24.6319C184.409 24.3759 184.675 24.0879 184.889 23.7679C185.187 23.2986 185.401 22.7333 185.529 22.0719C185.657 21.4106 185.721 20.5039 185.721 19.3519V17.2399Z" fill="currentColor"/>
<path d="M206.931 24.0239C205.117 26.2213 202.867 27.3199 200.179 27.3199C198.92 27.3199 197.779 27.1173 196.755 26.7119C195.731 26.2853 194.845 25.6986 194.099 24.9519C193.373 24.1839 192.808 23.2773 192.403 22.2319C191.997 21.1653 191.795 19.9919 191.795 18.7119C191.795 17.4106 192.008 16.2053 192.435 15.0959C192.861 13.9866 193.459 13.0373 194.227 12.2479C195.016 11.4586 195.944 10.8399 197.011 10.3919C198.099 9.94394 199.283 9.71994 200.563 9.71994C202.632 9.71994 204.232 10.2853 205.363 11.4159C206.493 12.5253 207.059 14.1253 207.059 16.2159C207.059 16.5146 206.995 16.6959 206.867 16.7599C206.76 16.8239 206.493 16.8559 206.067 16.8559H195.539C195.496 17.0266 195.464 17.2399 195.443 17.4959C195.421 17.7306 195.411 17.9973 195.411 18.2959C195.411 19.4053 195.539 20.4186 195.795 21.3359C196.072 22.2319 196.456 22.9999 196.947 23.6399C197.459 24.2799 198.056 24.7813 198.739 25.1439C199.443 25.4853 200.221 25.6559 201.075 25.6559C201.971 25.6559 202.803 25.4639 203.571 25.0799C204.339 24.6746 205.128 24.0239 205.939 23.1279L206.931 24.0239ZM201.651 15.3839C202.077 15.3839 202.419 15.3733 202.675 15.3519C202.931 15.3306 203.123 15.2879 203.251 15.2239C203.379 15.1599 203.464 15.0746 203.507 14.9679C203.549 14.8399 203.571 14.6799 203.571 14.4879C203.571 13.5066 203.251 12.7279 202.611 12.1519C201.992 11.5546 201.139 11.2559 200.051 11.2559C197.747 11.2559 196.317 12.6319 195.763 15.3839H201.651Z" fill="currentColor"/>
<path d="M222.266 26.9999H206.906V26.8719L217.978 11.3839H214.426C213.509 11.3839 212.752 11.4266 212.154 11.5119C211.578 11.5759 211.098 11.7253 210.714 11.9599C210.352 12.1733 210.074 12.4826 209.882 12.8879C209.69 13.2719 209.541 13.7946 209.434 14.4559H208.41L208.922 10.0399H222.682V10.1679L211.77 25.5279H215.514C216.602 25.5279 217.498 25.4853 218.202 25.3999C218.928 25.3146 219.514 25.1439 219.962 24.8879C220.432 24.6319 220.794 24.2799 221.05 23.8319C221.328 23.3839 221.562 22.7866 221.754 22.0399H222.81L222.266 26.9999Z" fill="currentColor"/>
</svg>
