<svg width="69" height="47" viewBox="0 0 69 47" fill="none" xmlns="http://www.w3.org/2000/svg">
  <path fill-rule="evenodd" clip-rule="evenodd" d="M24.8673 39.1353L27.934 30.5588C28.0359 30.214 28.2515 29.9147 28.548 29.7151L52.3751 11.2343L22.6813 26.6547L24.8673 39.1353ZM30.3029 33.4983L34.8342 36.4559L27.4908 41.3188L30.3029 33.4983ZM63.9981 6.29541L50.7191 42.9519L32.2649 30.9279L63.9981 6.29541ZM67.005 0.047431C67.589 -0.0977304 68.2029 0.0958181 68.5982 0.552469C68.9966 1.00912 69.1074 1.64726 68.8917 2.21273L53.0428 45.964C52.8691 46.4206 52.5007 46.7715 52.0425 46.9227C51.5813 47.0709 51.0781 47.0043 50.6738 46.7382L37.772 38.3699L25.3041 46.6592C24.8548 46.9919 24.2708 47.0675 23.7557 46.8618C23.2376 46.6532 22.8662 46.1905 22.7674 45.6371L19.4461 26.8172L0.847808 16.707C0.236858 16.3774 -0.0956009 15.6909 0.0242324 15.0014C0.144027 14.3149 0.683109 13.7826 1.36893 13.6798L67.005 0.047431ZM20.9109 23.9383L6.25111 15.9726L56.2622 5.58137L20.9109 23.9383Z" fill="#BEBEBE"/>
  </svg>
  