<svg width="150" height="100" fill="none" xmlns="http://www.w3.org/2000/svg">
<path d="M17.3383 69.4541C23.495 64.9143 30.901 61.281 37.8834 59.3751C39.354 58.9736 41.7993 58.4452 42.9998 58.2693L43.4915 58.1973L44.5254 56.3315C72.4314 5.97299 40.5852 -12.6629 32.2373 34.495C31.1861 40.4332 31.4871 45.0792 33.1781 49.0158C33.7477 50.3419 34.4346 51.529 35.5039 53.0355C36.5528 54.5132 36.7003 54.8376 36.6619 55.5818C36.6266 56.2692 36.4085 56.6989 35.9067 57.07C35.5214 57.3549 35.1523 57.4508 34.5565 57.4207C34.2101 57.4032 33.7027 57.2179 32.0635 56.5103C27.5103 54.5447 23.0134 52.8675 16.9638 50.8785C11.1062 48.9527 7.92437 47.6959 4.66056 46.0186C1.95745 44.6295 0.70852 43.6366 0.215798 42.4851C-0.00782907 41.9625 -0.0224935 41.8597 0.017269 41.0924C0.0575195 40.3158 0.0798565 40.2289 0.374698 39.7022C1.63245 37.455 6.28915 35.7239 11.6515 35.5101C14.9967 35.3767 18.3313 36.3416 20.2382 37.9947C21.2369 38.8605 22.0732 40.1877 22.4323 41.4768C22.8729 43.0584 22.3019 44.5667 21.2176 44.6853C20.9928 44.7099 20.7969 44.6577 20.4638 44.4843C19.7452 44.1103 19.2944 43.5744 18.8092 42.5172C18.5463 41.9443 18.241 41.4298 18.0101 41.1702C17.0152 40.0523 14.8656 39.336 12.4515 39.318C10.2071 39.3012 7.70944 39.7122 5.79203 40.4138C5.04251 40.688 4.12812 41.1548 4.12235 41.266C4.11675 41.3741 5.30237 42.0767 6.55845 42.7096C9.81651 44.3513 12.4083 45.3629 18.598 47.4091C22.0442 48.5482 25.0566 49.6121 27.9314 50.7052C29.0456 51.1288 29.973 51.4612 29.9923 51.4438C30.0116 51.4264 29.8407 50.9617 29.6124 50.4112C27.9452 46.3901 27.2213 41.2325 27.4406 35.8817C27.5865 32.3206 28.3963 27.6738 29.4837 24.3411C44.8035 -22.6133 76.3671 4.02418 48.9457 56.1924C48.5088 57.0236 48.1507 57.7153 48.15 57.7295C48.1492 57.7437 49.0726 57.7885 50.2018 57.8291C59.3064 58.1567 76.6528 64.2686 75.8576 78.5311C75.7391 80.6557 75.6263 81.3996 75.4037 81.5238C75.109 81.6882 74.9844 81.4588 74.6861 80.203C73.567 75.4916 69.3983 65.1422 54.1664 62.0679C52.0756 61.6459 48.4354 61.4765 46.4076 61.7069L45.8237 61.7733L45.3326 62.5768C10.0988 120.225 -19.0132 96.2588 17.3383 69.4541ZM39.7827 64.1855C40.3109 63.3858 40.7442 62.7088 40.7456 62.681C40.7519 62.5609 40.3503 62.6459 38.6028 63.1344C-9.96053 76.7113 2.17237 121.131 39.7827 64.1855ZM91.6272 87.5612C89.2849 87.0733 87.0506 84.9965 85.8049 82.1493C84.6486 79.5061 84.6406 76.5422 85.7824 73.7416C86.3434 72.3655 87.405 70.6181 88.5848 69.1289C90.0579 67.2695 92.5899 64.9493 95.1575 63.1059C98.9978 60.3489 103.595 57.9254 108.294 56.1805C109.086 55.8863 109.782 55.6079 109.841 55.5618C109.899 55.5157 110.119 54.6853 110.329 53.7165C110.734 51.8496 111.532 47.6282 111.488 47.58C111.474 47.5643 111.203 47.8475 110.886 48.2094C109.415 49.8895 108.252 50.6741 107.04 50.8052C105.732 50.9468 104.601 50.2595 103.764 48.8142C103.228 47.8888 102.84 46.5139 102.78 45.3246C102.765 45.0325 102.726 44.8084 102.692 44.8266C102.659 44.8448 102.354 45.3037 102.015 45.8465C100.428 48.3866 98.9365 49.9507 96.5626 51.5663C94.1043 53.2392 92.1972 53.2641 91.2389 52.9425C90.7387 52.7746 90.0634 51.9155 89.9614 51.4503C89.7361 50.4233 90.2307 49.5832 91.6147 49.7277C92.3245 49.8018 92.9217 49.4304 92.9116 49.2276C92.8515 48.017 91.1401 44.4504 90.9915 44.4428C90.9603 44.4412 90.7449 45.0923 90.5331 45.4989C89.3789 47.715 87.5224 49.8844 85.5661 51.303C84.6874 51.9403 83.3366 52.5006 82.8286 52.6636C82.2513 52.849 80.404 53.0251 79.5976 52.6294C79.194 52.4314 78.6581 52.1797 78.3982 51.959C78.0326 51.6485 77.4527 50.9698 77.4741 50.5389C77.5138 49.7394 78.0723 48.5989 78.8447 48.8547C80.8092 49.5055 80.9804 49.2059 80.9707 48.8452C80.9397 47.6873 80.4645 46.4225 79.3791 44.6085C78.9751 43.9334 78.62 43.3797 78.5898 43.3782C78.5597 43.3766 78.2957 43.8013 78.0032 44.3218C76.7903 46.4804 75.6967 48.0288 74.2002 49.7062C71.331 52.9223 68.999 54.4175 66.1965 54.8382C64.6947 55.0636 63.3299 54.8786 62.2246 54.2998L61.6773 54.0131L58.5948 55.2166C57.3055 55.4839 55.9815 55.4703 55.2442 54.5623C54.7169 53.9129 54.6179 53.2206 54.963 52.5944C55.2074 52.1509 55.4657 52.0094 56.1408 51.9493C56.4445 51.9223 56.7766 51.8515 56.8786 51.7921C57.0577 51.6878 59.8135 50.6084 59.7277 50.1396C59.5048 48.921 59.619 46.748 59.9772 45.3931C60.5531 43.2148 61.8287 41.0935 63.4331 39.6463C64.3039 38.8607 65.096 38.448 65.9589 38.3302C67.2701 38.1513 68.6306 38.9109 69.1735 40.125C69.5693 41.0102 69.6197 42.3851 69.3033 43.6705C68.7983 45.7225 67.2036 48.5908 65.1618 51.1197C65.025 51.2891 65.0263 51.2992 65.1852 51.3074C65.2775 51.3122 65.6201 51.241 65.9465 51.1494C68.1094 50.5417 70.4897 48.5074 73.0461 45.0817C74.8932 42.6065 75.7416 40.9358 76.525 38.2315C76.7616 37.4148 76.8951 37.1739 77.3145 36.8077C77.7082 36.464 78.3893 36.2823 78.8979 36.3854C79.3871 36.4845 79.9407 36.9004 80.169 37.3402C80.2747 37.5438 80.3878 37.9649 80.4216 38.2808C80.4552 38.5954 80.5459 38.9936 80.623 39.1658C80.7001 39.338 81.3711 40.4967 82.1141 41.7407C83.4973 44.0567 84.2181 45.5355 84.449 46.531C84.5196 46.8358 84.603 47.0865 84.6342 47.0881C84.6654 47.0897 84.8349 46.9399 85.0108 46.7552C85.9561 45.7628 87.3975 42.9282 88.2126 41.215C88.6183 40.3622 88.722 40.052 88.8464 39.3179C89.1466 37.5468 89.9313 36.7035 91.2145 36.7727C92.5355 36.8439 93.0864 38.0549 92.9495 39.4601C92.8711 40.2657 94.2274 41.4593 95.4363 44.625C95.8036 45.5869 96.2307 46.9398 96.2707 46.9419C96.3752 46.9473 97.5377 45.6756 98.2703 44.7545C98.6139 44.3224 99.3889 43.2484 99.9924 42.3678C102.15 39.2193 103.443 37.7581 104.442 37.3377C104.981 37.1111 105.732 37.1711 106.239 37.4813C107.277 38.1155 107.421 39.0625 106.911 41.8955C106.649 43.3511 106.534 44.8881 106.639 45.5285C106.727 46.069 106.913 46.6616 106.996 46.6659C107.031 46.6677 107.235 46.501 107.448 46.2955C109.72 44.1062 112.493 38.9979 113.63 34.9064C114.228 32.7527 114.714 32.0571 115.754 31.8643C116.318 31.7598 116.867 31.9269 117.296 32.3341C118.051 33.0489 118.099 33.7268 117.523 35.5629C117.11 36.8802 116.997 37.4758 116.299 42.0064C115.75 45.5734 115.068 49.5128 114.51 52.3442C114.32 53.307 114.183 54.1151 114.206 54.1399C114.228 54.1648 114.77 54.0421 115.411 53.8673C118.224 53.0998 121.603 52.3691 124.08 51.9926L125.393 51.793L125.973 50.7903C126.292 50.2388 127.116 48.8655 127.805 47.7385C129.317 45.2653 129.689 44.6167 129.921 44.0425C130.147 43.4823 130.149 43.3834 129.935 43.3724C129.602 43.3552 127.965 43.7876 125.61 44.5147C122.929 45.3426 122.201 45.4939 121.348 45.4015C120.813 45.3436 120.744 45.3147 120.538 45.0592C120.215 44.6595 120.248 44.1503 120.62 43.7694C120.767 43.6181 120.971 43.4733 121.073 43.4477C121.174 43.4221 122.06 43.0694 123.041 42.6639C127.835 40.6821 130.302 40.1295 131.684 40.728C133.186 41.3784 133.711 43.0991 133.054 45.2176C132.718 46.2993 132.291 47.2008 131.078 49.3901C130.503 50.4267 130.033 51.2798 130.032 51.2857C130.032 51.2917 131.347 51.3643 132.954 51.447C135.231 51.5643 136.115 51.641 136.96 51.7952C140.337 52.4107 142.731 53.4052 145.387 55.296C145.826 55.6084 146.006 55.7871 146 55.9051C145.989 56.1209 145.927 56.1027 144.438 55.4447C142.366 54.5297 140.836 54.1187 138.427 53.8306C136.221 53.5668 133.188 53.625 130.017 53.992C128.282 54.1928 128.528 54.0205 127.623 55.665C125.285 59.9119 123.607 63.4367 122.531 66.3648C121.577 68.9603 121.266 70.3086 121.254 71.9006C121.246 72.8738 121.182 73.0708 120.913 72.9515C120.704 72.8588 120.01 71.76 119.746 71.1052C119.3 69.9942 119.195 69.3055 119.23 67.728C119.265 66.1726 119.375 65.5394 119.915 63.7935C120.491 61.9311 122.001 58.3146 123.212 55.894C123.511 55.2977 123.56 55.1452 123.456 55.1399C123.082 55.1206 118.38 56.3767 116.227 57.0707C114.015 57.7834 113.225 58.0982 113.173 58.2863C111.984 62.6179 111.231 64.9738 110.197 67.594C108.27 72.4759 105.825 77.1008 103.585 80.1006C102.408 81.6775 101.515 82.6509 99.9067 84.1083C97.9889 85.8466 96.7384 86.6826 95.2643 87.2122C94.087 87.6352 92.6462 87.7734 91.6272 87.5612ZM93.8137 83.6645C95.4395 83.1468 98.0059 81.0013 100.042 78.458C102.491 75.3985 105.431 69.7365 107.311 64.4606C107.917 62.7587 108.738 60.0965 108.677 60.0294C108.62 59.9654 107.994 60.2336 106.254 61.0684C97.4344 65.2988 91.6836 70.0376 89.397 74.959C88.109 77.7309 88.3776 80.558 90.1135 82.5019C91.2835 83.8122 92.3236 84.139 93.8137 83.6645ZM64.3935 45.506C65.1182 44.2153 65.4948 43.3228 65.6138 42.6139L65.6875 42.1743L65.2415 42.5958C63.9672 43.7996 63.1359 45.4232 62.9618 47.0485L62.8778 47.8316L63.2964 47.2729C63.5267 46.9657 64.0204 46.1706 64.3935 45.506Z" fill="url(#paint0_linear_49_44)"/>
<defs>
<linearGradient id="paint0_linear_49_44" x1="105.5" y1="126.5" x2="124.5" y2="32" gradientUnits="userSpaceOnUse">
<stop offset="0.105" stop-color="#2aacf2"/>
<stop offset="0.59" stop-color="#acc9ef"/>
<stop offset="1" stop-color="#2aacf2"/>
</linearGradient>
</defs>
</svg>