<svg width="225" height="36" viewBox="0 0 225 36" fill="none" xmlns="http://www.w3.org/2000/svg">
<g clip-path="url(#clip0_703_7)">
<path d="M9.93 5.988C9.93 5.19467 9.88467 4.56 9.794 4.084C9.726 3.58533 9.56733 3.2 9.318 2.928C9.09133 2.63333 8.75133 2.44067 8.298 2.35C7.84467 2.23667 7.25533 2.15733 6.53 2.112V0.819999H16.866V2.112C16.1407 2.13467 15.5513 2.20267 15.098 2.316C14.6673 2.42933 14.3273 2.63333 14.078 2.928C13.8513 3.22267 13.6927 3.63066 13.602 4.152C13.534 4.67333 13.5 5.36467 13.5 6.226V27.068C13.5 29.924 12.8993 32.1 11.698 33.596C10.4967 35.092 8.74 35.84 6.428 35.84C4.864 35.84 3.61733 35.534 2.688 34.922C1.736 34.3327 1.26 33.5393 1.26 32.542C1.26 31.9527 1.41867 31.4993 1.736 31.182C2.03067 30.8873 2.45 30.74 2.994 30.74C3.42467 30.74 3.776 30.842 4.048 31.046C4.29733 31.2727 4.592 31.7033 4.932 32.338C5.31733 33.0633 5.646 33.5507 5.918 33.8C6.21267 34.072 6.58667 34.208 7.04 34.208C7.96933 34.208 8.68333 33.7093 9.182 32.712C9.68067 31.7147 9.93 30.298 9.93 28.462V5.988ZM31.6849 24.024C29.8715 26.2213 27.6209 27.32 24.9329 27.32C23.6742 27.32 22.5329 27.1173 21.5089 26.712C20.4849 26.2853 19.5995 25.6987 18.8529 24.952C18.1275 24.184 17.5622 23.2773 17.1569 22.232C16.7515 21.1653 16.5489 19.992 16.5489 18.712C16.5489 17.4107 16.7622 16.2053 17.1889 15.096C17.6155 13.9867 18.2129 13.0373 18.9809 12.248C19.7702 11.4587 20.6982 10.84 21.7649 10.392C22.8529 9.944 24.0369 9.72 25.3169 9.72C27.3862 9.72 28.9862 10.2853 30.1169 11.416C31.2475 12.5253 31.8129 14.1253 31.8129 16.216C31.8129 16.5147 31.7489 16.696 31.6209 16.76C31.5142 16.824 31.2475 16.856 30.8209 16.856H20.2929C20.2502 17.0267 20.2182 17.24 20.1969 17.496C20.1755 17.7307 20.1649 17.9973 20.1649 18.296C20.1649 19.4053 20.2929 20.4187 20.5489 21.336C20.8262 22.232 21.2102 23 21.7009 23.64C22.2129 24.28 22.8102 24.7813 23.4929 25.144C24.1969 25.4853 24.9755 25.656 25.8289 25.656C26.7249 25.656 27.5569 25.464 28.3249 25.08C29.0929 24.6747 29.8822 24.024 30.6929 23.128L31.6849 24.024ZM26.4049 15.384C26.8315 15.384 27.1729 15.3733 27.4289 15.352C27.6849 15.3307 27.8769 15.288 28.0049 15.224C28.1329 15.16 28.2182 15.0747 28.2609 14.968C28.3035 14.84 28.3249 14.68 28.3249 14.488C28.3249 13.5067 28.0049 12.728 27.3649 12.152C26.7462 11.5547 25.8929 11.256 24.8049 11.256C22.5009 11.256 21.0715 12.632 20.5169 15.384H26.4049ZM33.8366 27H33.1326V21.496H33.9326C34.7646 24.504 36.2793 26.008 38.4766 26.008C39.3299 26.008 40.0019 25.8053 40.4926 25.4C41.0046 24.9733 41.2606 24.3333 41.2606 23.48C41.2606 23.16 41.2073 22.8933 41.1006 22.68C41.0153 22.4453 40.8339 22.2107 40.5566 21.976C40.3006 21.72 39.9273 21.432 39.4366 21.112C38.9673 20.792 38.3379 20.3867 37.5486 19.896C36.8233 19.448 36.1939 19.032 35.6606 18.648C35.1273 18.264 34.6793 17.88 34.3166 17.496C33.9539 17.0907 33.6766 16.664 33.4846 16.216C33.3139 15.768 33.2286 15.2453 33.2286 14.648C33.2286 13.9227 33.3459 13.2613 33.5806 12.664C33.8366 12.0453 34.1779 11.5227 34.6046 11.096C35.0313 10.6693 35.5326 10.3387 36.1086 10.104C36.6846 9.848 37.3139 9.72 37.9966 9.72C38.5726 9.72 39.1699 9.816 39.7886 10.008C40.4073 10.1787 40.9513 10.4133 41.4206 10.712L42.0606 10.04H42.6686V14.648H41.8366C41.3673 13.3467 40.8553 12.4187 40.3006 11.864C39.7459 11.3093 39.0633 11.032 38.2526 11.032C37.5273 11.032 36.9406 11.224 36.4926 11.608C36.0659 11.992 35.8526 12.5253 35.8526 13.208C35.8526 13.5707 35.9059 13.8907 36.0126 14.168C36.1406 14.424 36.3326 14.68 36.5886 14.936C36.8446 15.192 37.1646 15.4587 37.5486 15.736C37.9539 15.992 38.4339 16.2907 38.9886 16.632C39.9059 17.208 40.6846 17.72 41.3246 18.168C41.9859 18.616 42.5193 19.064 42.9246 19.512C43.3299 19.9387 43.6286 20.3867 43.8206 20.856C44.0126 21.3253 44.1086 21.8587 44.1086 22.456C44.1086 23.9707 43.6179 25.1653 42.6366 26.04C41.6553 26.8933 40.3646 27.32 38.7646 27.32C37.1006 27.32 35.6713 26.84 34.4766 25.88L33.8366 27ZM46.1279 27H45.4239V21.496H46.2239C47.0559 24.504 48.5705 26.008 50.7679 26.008C51.6212 26.008 52.2932 25.8053 52.7839 25.4C53.2959 24.9733 53.5519 24.3333 53.5519 23.48C53.5519 23.16 53.4985 22.8933 53.3919 22.68C53.3065 22.4453 53.1252 22.2107 52.8479 21.976C52.5919 21.72 52.2185 21.432 51.7279 21.112C51.2585 20.792 50.6292 20.3867 49.8399 19.896C49.1145 19.448 48.4852 19.032 47.9519 18.648C47.4185 18.264 46.9705 17.88 46.6079 17.496C46.2452 17.0907 45.9679 16.664 45.7759 16.216C45.6052 15.768 45.5199 15.2453 45.5199 14.648C45.5199 13.9227 45.6372 13.2613 45.8719 12.664C46.1279 12.0453 46.4692 11.5227 46.8959 11.096C47.3225 10.6693 47.8239 10.3387 48.3999 10.104C48.9759 9.848 49.6052 9.72 50.2879 9.72C50.8639 9.72 51.4612 9.816 52.0799 10.008C52.6985 10.1787 53.2425 10.4133 53.7119 10.712L54.3519 10.04H54.9599V14.648H54.1279C53.6585 13.3467 53.1465 12.4187 52.5919 11.864C52.0372 11.3093 51.3545 11.032 50.5439 11.032C49.8185 11.032 49.2319 11.224 48.7839 11.608C48.3572 11.992 48.1439 12.5253 48.1439 13.208C48.1439 13.5707 48.1972 13.8907 48.3039 14.168C48.4319 14.424 48.6239 14.68 48.8799 14.936C49.1359 15.192 49.4559 15.4587 49.8399 15.736C50.2452 15.992 50.7252 16.2907 51.2799 16.632C52.1972 17.208 52.9759 17.72 53.6159 18.168C54.2772 18.616 54.8105 19.064 55.2159 19.512C55.6212 19.9387 55.9199 20.3867 56.1119 20.856C56.3039 21.3253 56.3999 21.8587 56.3999 22.456C56.3999 23.9707 55.9092 25.1653 54.9279 26.04C53.9465 26.8933 52.6559 27.32 51.0559 27.32C49.3919 27.32 47.9625 26.84 46.7679 25.88L46.1279 27ZM62.9631 21.912C62.9631 22.744 62.9951 23.416 63.0591 23.928C63.1444 24.4187 63.2938 24.8133 63.5071 25.112C63.7204 25.3893 64.0191 25.5813 64.4031 25.688C64.7871 25.7947 65.2991 25.8587 65.9391 25.88V27H56.7551V25.88C57.3951 25.8587 57.9178 25.7947 58.3231 25.688C58.7284 25.56 59.0378 25.368 59.2511 25.112C59.4858 24.8347 59.6351 24.4613 59.6991 23.992C59.7844 23.5013 59.8271 22.8827 59.8271 22.136V18.04C59.8271 16.8027 59.8058 15.7893 59.7631 15C59.7418 14.1893 59.6884 13.6347 59.6031 13.336C59.4964 12.8453 59.2511 12.5147 58.8671 12.344C58.4831 12.152 57.7578 12.056 56.6911 12.056V10.936L62.9631 9.72V21.912ZM59.2831 3.224C59.2831 2.66933 59.4751 2.2 59.8591 1.816C60.2431 1.432 60.7124 1.24 61.2671 1.24C61.8218 1.24 62.2911 1.432 62.6751 1.816C63.0591 2.2 63.2511 2.66933 63.2511 3.224C63.2511 3.77867 63.0591 4.248 62.6751 4.632C62.2911 5.016 61.8218 5.208 61.2671 5.208C60.7124 5.208 60.2431 5.016 59.8591 4.632C59.4751 4.248 59.2831 3.77867 59.2831 3.224ZM80.5254 24.344C79.7574 25.2827 78.7654 26.0187 77.5494 26.552C76.3334 27.064 75.0214 27.32 73.6134 27.32C72.4827 27.32 71.4374 27.1173 70.4774 26.712C69.5387 26.2853 68.728 25.6987 68.0454 24.952C67.3627 24.184 66.8294 23.2667 66.4454 22.2C66.0827 21.1333 65.9014 19.9493 65.9014 18.648C65.9014 17.2827 66.1147 16.056 66.5414 14.968C66.968 13.8587 67.5654 12.92 68.3334 12.152C69.1227 11.3627 70.0614 10.7653 71.1494 10.36C72.2587 9.93333 73.4747 9.72 74.7974 9.72C75.6294 9.72 76.3867 9.79467 77.0694 9.944C77.752 10.072 78.3387 10.264 78.8294 10.52C79.3414 10.7547 79.736 11.0533 80.0134 11.416C80.2907 11.7573 80.4294 12.1307 80.4294 12.536C80.4294 12.9627 80.2907 13.2933 80.0134 13.528C79.736 13.7627 79.352 13.88 78.8614 13.88C78.4774 13.88 78.1574 13.8053 77.9014 13.656C77.6454 13.4853 77.3147 13.1227 76.9094 12.568C76.4827 12.0773 76.0667 11.736 75.6614 11.544C75.2774 11.3307 74.776 11.224 74.1574 11.224C72.6427 11.224 71.4907 11.8107 70.7014 12.984C69.9334 14.1573 69.5494 15.8853 69.5494 18.168C69.5494 20.6213 69.976 22.488 70.8294 23.768C71.704 25.0267 72.9734 25.656 74.6374 25.656C75.5334 25.656 76.376 25.4853 77.1654 25.144C77.9547 24.7813 78.7547 24.2053 79.5654 23.416L80.5254 24.344ZM90.4176 17.528C89.2016 17.9973 88.1669 18.456 87.3136 18.904C86.4816 19.352 85.8096 19.8 85.2976 20.248C84.7856 20.696 84.4123 21.144 84.1776 21.592C83.9643 22.04 83.8576 22.4987 83.8576 22.968C83.8576 23.672 84.0923 24.248 84.5616 24.696C85.0309 25.144 85.6496 25.368 86.4176 25.368C86.9723 25.368 87.4843 25.2293 87.9536 24.952C88.4443 24.6747 88.8709 24.3013 89.2336 23.832C89.5963 23.3413 89.8843 22.776 90.0976 22.136C90.3109 21.4747 90.4176 20.7813 90.4176 20.056V17.528ZM90.4176 16.152V14.84C90.4176 12.2373 89.3083 10.936 87.0896 10.936C86.7269 10.936 86.4176 10.968 86.1616 11.032C85.9056 11.096 85.6923 11.2027 85.5216 11.352C85.3509 11.5013 85.1909 11.7147 85.0416 11.992C84.9136 12.2693 84.7856 12.6107 84.6576 13.016C84.4229 13.6347 84.1883 14.0507 83.9536 14.264C83.7403 14.456 83.4203 14.552 82.9936 14.552C81.9269 14.552 81.3936 14.0187 81.3936 12.952C81.3936 11.928 81.9376 11.1387 83.0256 10.584C84.1136 10.008 85.6603 9.72 87.6656 9.72C89.7989 9.72 91.3136 10.104 92.2096 10.872C93.1056 11.6187 93.5536 12.8987 93.5536 14.712V21.88C93.5536 24.312 94.0336 25.528 94.9936 25.528C95.2923 25.528 95.5803 25.496 95.8576 25.432C96.1349 25.3467 96.3696 25.144 96.5616 24.824L97.0096 25.592C96.7536 26.0827 96.2843 26.4987 95.6016 26.84C94.9189 27.16 94.2043 27.32 93.4576 27.32C92.5189 27.32 91.8149 27.0213 91.3456 26.424C90.8976 25.8267 90.6736 24.984 90.6736 23.896H90.5136C89.9589 24.9413 89.1909 25.7733 88.2096 26.392C87.2283 26.9893 86.1403 27.288 84.9456 27.288C83.6016 27.288 82.5456 26.9467 81.7776 26.264C81.0096 25.5813 80.6256 24.664 80.6256 23.512C80.6256 23 80.7109 22.5093 80.8816 22.04C81.0736 21.5707 81.3723 21.1227 81.7776 20.696C82.1829 20.2693 82.7163 19.8533 83.3776 19.448C84.0389 19.0213 84.8496 18.5947 85.8096 18.168L90.4176 16.152ZM120.032 20.914L128.872 0.819999H136.488V2.112C135.763 2.13467 135.173 2.22533 134.72 2.384C134.289 2.54267 133.949 2.81467 133.7 3.2C133.473 3.56267 133.315 4.07267 133.224 4.73C133.156 5.38733 133.122 6.226 133.122 7.246V20.574C133.122 21.7073 133.167 22.6027 133.258 23.26C133.349 23.9173 133.519 24.4273 133.768 24.79C134.04 25.1527 134.414 25.3907 134.89 25.504C135.389 25.6173 136.035 25.6853 136.828 25.708V27H125.812V25.708C126.605 25.6853 127.24 25.6173 127.716 25.504C128.215 25.368 128.6 25.13 128.872 24.79C129.144 24.45 129.325 23.974 129.416 23.362C129.507 22.7273 129.552 21.8773 129.552 20.812V5.036H129.212L119.284 27.34H118.536L108.778 5.036H108.642V20.574C108.642 21.7073 108.687 22.6027 108.778 23.26C108.869 23.9173 109.039 24.4273 109.288 24.79C109.56 25.1527 109.934 25.3907 110.41 25.504C110.909 25.6173 111.555 25.6853 112.348 25.708V27H102.862V25.708C103.655 25.6853 104.29 25.6173 104.766 25.504C105.265 25.368 105.65 25.13 105.922 24.79C106.194 24.45 106.375 23.974 106.466 23.362C106.557 22.7273 106.602 21.8773 106.602 20.812V7.008C106.602 6.056 106.557 5.274 106.466 4.662C106.398 4.02733 106.239 3.52866 105.99 3.166C105.763 2.80333 105.423 2.554 104.97 2.418C104.517 2.25933 103.927 2.15733 103.202 2.112V0.819999H111.328L119.896 20.914H120.032ZM151.691 24.024C149.877 26.2213 147.627 27.32 144.939 27.32C143.68 27.32 142.539 27.1173 141.515 26.712C140.491 26.2853 139.605 25.6987 138.859 24.952C138.133 24.184 137.568 23.2773 137.163 22.232C136.757 21.1653 136.555 19.992 136.555 18.712C136.555 17.4107 136.768 16.2053 137.195 15.096C137.621 13.9867 138.219 13.0373 138.987 12.248C139.776 11.4587 140.704 10.84 141.771 10.392C142.859 9.944 144.043 9.72 145.323 9.72C147.392 9.72 148.992 10.2853 150.123 11.416C151.253 12.5253 151.819 14.1253 151.819 16.216C151.819 16.5147 151.755 16.696 151.627 16.76C151.52 16.824 151.253 16.856 150.827 16.856H140.299C140.256 17.0267 140.224 17.24 140.203 17.496C140.181 17.7307 140.171 17.9973 140.171 18.296C140.171 19.4053 140.299 20.4187 140.555 21.336C140.832 22.232 141.216 23 141.707 23.64C142.219 24.28 142.816 24.7813 143.499 25.144C144.203 25.4853 144.981 25.656 145.835 25.656C146.731 25.656 147.563 25.464 148.331 25.08C149.099 24.6747 149.888 24.024 150.699 23.128L151.691 24.024ZM146.411 15.384C146.837 15.384 147.179 15.3733 147.435 15.352C147.691 15.3307 147.883 15.288 148.011 15.224C148.139 15.16 148.224 15.0747 148.267 14.968C148.309 14.84 148.331 14.68 148.331 14.488C148.331 13.5067 148.011 12.728 147.371 12.152C146.752 11.5547 145.899 11.256 144.811 11.256C142.507 11.256 141.077 12.632 140.523 15.384H146.411ZM158.003 21.976C158.003 22.8507 158.024 23.544 158.067 24.056C158.109 24.5467 158.216 24.9307 158.387 25.208C158.579 25.464 158.845 25.6347 159.187 25.72C159.549 25.8053 160.04 25.8693 160.659 25.912V27H152.275V25.912C152.872 25.8693 153.341 25.8053 153.683 25.72C154.045 25.6347 154.323 25.464 154.515 25.208C154.707 24.952 154.824 24.5893 154.867 24.12C154.931 23.6507 154.963 23.0107 154.963 22.2V17.944C154.963 15.4053 154.899 13.8587 154.771 13.304C154.707 13.0267 154.621 12.8027 154.515 12.632C154.429 12.44 154.291 12.3013 154.099 12.216C153.907 12.1093 153.661 12.0453 153.363 12.024C153.064 11.9813 152.68 11.96 152.211 11.96V10.936L157.331 9.72L157.715 12.888H157.843C158.653 11.8853 159.603 11.1067 160.691 10.552C161.779 9.99733 162.963 9.72 164.243 9.72C165.224 9.72 166.12 9.88 166.931 10.2C167.741 10.52 168.36 10.9573 168.787 11.512C169.149 12.0027 169.405 12.6427 169.555 13.432C169.704 14.2 169.779 15.2667 169.779 16.632V21.976C169.779 22.8507 169.8 23.544 169.843 24.056C169.907 24.5467 170.024 24.9307 170.195 25.208C170.365 25.464 170.621 25.6347 170.963 25.72C171.325 25.8053 171.795 25.8693 172.371 25.912V27H164.083V25.912C164.68 25.8907 165.149 25.8373 165.491 25.752C165.853 25.6453 166.12 25.464 166.291 25.208C166.483 24.952 166.6 24.5893 166.643 24.12C166.707 23.6293 166.739 22.9893 166.739 22.2V17.976C166.739 16.76 166.675 15.736 166.547 14.904C166.419 14.072 166.205 13.4 165.907 12.888C165.629 12.376 165.256 12.0133 164.787 11.8C164.317 11.5653 163.752 11.448 163.091 11.448C162.131 11.448 161.245 11.704 160.435 12.216C159.645 12.7067 159.027 13.3893 158.579 14.264C158.472 14.4773 158.376 14.68 158.291 14.872C158.227 15.064 158.173 15.288 158.131 15.544C158.088 15.8 158.056 16.0987 158.035 16.44C158.013 16.76 158.003 17.176 158.003 17.688V21.976ZM186.401 24.312H186.273C185.505 25.4 184.684 26.1787 183.809 26.648C182.956 27.096 181.942 27.32 180.769 27.32C179.553 27.32 178.433 27.1067 177.409 26.68C176.406 26.232 175.532 25.624 174.785 24.856C174.06 24.0667 173.484 23.128 173.057 22.04C172.652 20.952 172.449 19.768 172.449 18.488C172.449 17.2293 172.652 16.0667 173.057 15C173.484 13.912 174.06 12.984 174.785 12.216C175.532 11.4267 176.417 10.8187 177.441 10.392C178.465 9.944 179.574 9.72 180.769 9.72C181.793 9.72 182.7 9.89067 183.489 10.232C184.3 10.5733 185.078 11.1173 185.825 11.864V8.6C185.825 7.384 185.804 6.37067 185.761 5.56C185.74 4.74933 185.697 4.19467 185.633 3.896C185.526 3.42667 185.228 3.096 184.737 2.904C184.246 2.712 183.446 2.616 182.337 2.616V1.656L188.897 0.439999V18.904C188.897 20.376 188.908 21.592 188.929 22.552C188.95 23.4907 189.014 24.1627 189.121 24.568C189.185 24.824 189.26 25.0373 189.345 25.208C189.452 25.3787 189.59 25.5173 189.761 25.624C189.953 25.7093 190.198 25.7733 190.497 25.816C190.817 25.8587 191.222 25.88 191.713 25.88V26.968L186.401 27.32V24.312ZM185.761 17.24C185.761 16.1307 185.697 15.288 185.569 14.712C185.462 14.136 185.238 13.6347 184.897 13.208C184.406 12.568 183.777 12.088 183.009 11.768C182.262 11.4267 181.516 11.256 180.769 11.256C179.233 11.256 178.06 11.896 177.249 13.176C176.46 14.4347 176.065 16.152 176.065 18.328C176.065 19.4587 176.161 20.4827 176.353 21.4C176.566 22.3173 176.865 23.1067 177.249 23.768C177.654 24.408 178.145 24.9093 178.721 25.272C179.318 25.6133 180.001 25.784 180.769 25.784C181.153 25.784 181.537 25.7413 181.921 25.656C182.326 25.5707 182.71 25.4427 183.073 25.272C183.457 25.08 183.809 24.8667 184.129 24.632C184.449 24.376 184.716 24.088 184.929 23.768C185.228 23.2987 185.441 22.7333 185.569 22.072C185.697 21.4107 185.761 20.504 185.761 19.352V17.24ZM206.971 24.024C205.157 26.2213 202.907 27.32 200.219 27.32C198.96 27.32 197.819 27.1173 196.795 26.712C195.771 26.2853 194.885 25.6987 194.139 24.952C193.413 24.184 192.848 23.2773 192.443 22.232C192.037 21.1653 191.835 19.992 191.835 18.712C191.835 17.4107 192.048 16.2053 192.475 15.096C192.901 13.9867 193.499 13.0373 194.267 12.248C195.056 11.4587 195.984 10.84 197.051 10.392C198.139 9.944 199.323 9.72 200.603 9.72C202.672 9.72 204.272 10.2853 205.403 11.416C206.533 12.5253 207.099 14.1253 207.099 16.216C207.099 16.5147 207.035 16.696 206.907 16.76C206.8 16.824 206.533 16.856 206.107 16.856H195.579C195.536 17.0267 195.504 17.24 195.483 17.496C195.461 17.7307 195.451 17.9973 195.451 18.296C195.451 19.4053 195.579 20.4187 195.835 21.336C196.112 22.232 196.496 23 196.987 23.64C197.499 24.28 198.096 24.7813 198.779 25.144C199.483 25.4853 200.261 25.656 201.115 25.656C202.011 25.656 202.843 25.464 203.611 25.08C204.379 24.6747 205.168 24.024 205.979 23.128L206.971 24.024ZM201.691 15.384C202.117 15.384 202.459 15.3733 202.715 15.352C202.971 15.3307 203.163 15.288 203.291 15.224C203.419 15.16 203.504 15.0747 203.547 14.968C203.589 14.84 203.611 14.68 203.611 14.488C203.611 13.5067 203.291 12.728 202.651 12.152C202.032 11.5547 201.179 11.256 200.091 11.256C197.787 11.256 196.357 12.632 195.803 15.384H201.691ZM222.307 27H206.947V26.872L218.019 11.384H214.467C213.549 11.384 212.792 11.4267 212.195 11.512C211.619 11.576 211.139 11.7253 210.755 11.96C210.392 12.1733 210.115 12.4827 209.923 12.888C209.731 13.272 209.581 13.7947 209.475 14.456H208.451L208.963 10.04H222.723V10.168L211.811 25.528H215.555C216.643 25.528 217.539 25.4853 218.243 25.4C218.968 25.3147 219.555 25.144 220.003 24.888C220.472 24.632 220.835 24.28 221.091 23.832C221.368 23.384 221.603 22.7867 221.795 22.04H222.851L222.307 27Z" fill="#784E73"/>
<mask id="path-2-outside-1_703_7" maskUnits="userSpaceOnUse" x="207.704" y="10.7215" width="15.2547" height="13.8621" fill="black">
<rect fill="white" x="207.704" y="10.7215" width="15.2547" height="13.8621"/>
<path d="M209.765 19.2159L209.315 18.5399L221.028 16.6822L221.408 17.2533L209.765 19.2159Z"/>
</mask>
<path d="M209.765 19.2159L209.315 18.5399L221.028 16.6822L221.408 17.2533L209.765 19.2159Z" fill="#784E73"/>
<path d="M209.765 19.2159L209.349 19.4929L209.528 19.7629L209.848 19.709L209.765 19.2159ZM209.315 18.5399L209.237 18.0461L208.467 18.1682L208.899 18.8169L209.315 18.5399ZM221.028 16.6822L221.444 16.4052L221.266 16.1381L220.949 16.1884L221.028 16.6822ZM221.408 17.2533L221.491 17.7463L222.251 17.6182L221.824 16.9763L221.408 17.2533ZM210.181 18.9389L209.731 18.2629L208.899 18.8169L209.349 19.4929L210.181 18.9389ZM209.394 19.0337L221.106 17.176L220.949 16.1884L209.237 18.0461L209.394 19.0337ZM220.611 16.9592L220.991 17.5303L221.824 16.9763L221.444 16.4052L220.611 16.9592ZM221.325 16.7603L209.682 18.7229L209.848 19.709L221.491 17.7463L221.325 16.7603Z" fill="#784E73" mask="url(#path-2-outside-1_703_7)"/>
</g>
<defs>
<clipPath id="clip0_703_7">
<rect width="225" height="36" fill="white"/>
</clipPath>
</defs>
</svg>
