<svg width="44" height="47" viewBox="0 0 44 47" fill="none" xmlns="http://www.w3.org/2000/svg">
  <path d="M43.4453 17.2772C43.4342 14.3048 42.4217 11.4253 40.5753 9.11477C41.2021 6.47312 41.0065 3.69979 40.0153 1.17517C39.9189 0.935267 39.7711 0.720006 39.5826 0.544893C39.3941 0.36978 39.1696 0.23917 38.9253 0.162469C38.2253 -0.0805794 35.5753 -0.536296 30.1753 3.00817C27.8529 2.38745 25.4569 2.09438 23.0553 2.13724C20.6504 2.09383 18.2511 2.38691 15.9253 3.00817C10.3853 -0.617313 7.50532 -0.0299447 6.92532 0.142215C6.67967 0.222343 6.45455 0.356506 6.26611 0.535088C6.07766 0.713671 5.93055 0.932253 5.83532 1.17517C4.8417 3.69157 4.63915 6.4572 5.25532 9.09451C3.34857 11.3935 2.33211 14.316 2.39532 17.3177C2.39532 28.5182 8.72532 31.9006 14.5253 33.0956C14.2276 33.8329 14.0227 34.6053 13.9153 35.3944C13.9049 35.4785 13.9049 35.5635 13.9153 35.6476V38.7465C8.63532 39.1921 7.50532 36.0628 7.39532 35.7084C7.36973 35.6257 7.33969 35.5446 7.30532 35.4653C6.2855 33.3582 4.49029 31.7401 2.30532 30.9588C1.86506 30.8097 1.38436 30.8439 0.968969 31.0537C0.553576 31.2636 0.237518 31.632 0.0903225 32.0778C-0.0568726 32.5237 -0.0231456 33.0105 0.184082 33.4311C0.39131 33.8518 0.755063 34.1719 1.19532 34.321C2.40614 34.7639 3.41589 35.6389 4.03532 36.7818C4.73532 39.0807 7.59532 42.7163 13.8953 42.3112V45.2278C13.8953 45.6978 14.0797 46.1486 14.4079 46.4809C14.7361 46.8133 15.1812 47 15.6453 47C16.1094 47 16.5546 46.8133 16.8828 46.4809C17.2109 46.1486 17.3953 45.6978 17.3953 45.2278V35.7792C17.5281 34.7474 17.9715 33.7821 18.6653 33.0146C18.9084 32.7842 19.081 32.488 19.1629 32.1612C19.2447 31.8344 19.2322 31.4907 19.1269 31.1709C19.0217 30.8511 18.828 30.5685 18.5689 30.3568C18.3099 30.1451 17.9963 30.0131 17.6653 29.9765C11.5653 29.2574 5.92532 27.2219 5.92532 17.2468C5.88478 16.0427 6.09135 14.8432 6.532 13.7241C6.97264 12.605 7.63777 11.5907 8.48532 10.7452C8.71325 10.4968 8.87073 10.1907 8.94113 9.85912C9.01153 9.52758 8.99225 9.18295 8.88532 8.86159C8.29621 7.12799 8.25774 5.25112 8.77532 3.49426C10.9226 3.98521 12.939 4.94231 14.6853 6.29945C14.9097 6.44985 15.1647 6.54707 15.4313 6.58389C15.698 6.62071 15.9694 6.59618 16.2253 6.51212C18.4472 5.82724 20.7636 5.50923 23.0853 5.57031C25.4038 5.50908 27.7169 5.82711 29.9353 6.51212C30.1912 6.59692 30.4627 6.62184 30.7295 6.585C30.9962 6.54816 31.2512 6.45053 31.4753 6.29945C33.1574 4.99431 35.0826 4.04702 37.1353 3.51452C37.6451 5.29082 37.5997 7.18335 37.0053 8.93248C36.9074 9.22437 36.8873 9.53725 36.947 9.83952C37.0067 10.1418 37.1441 10.4228 37.3453 10.6541C39.0008 12.4441 39.9385 14.7945 39.9753 17.2468C39.9753 27.2016 34.0453 29.2676 28.2353 29.9765C27.8875 30.0156 27.5594 30.1601 27.2939 30.3911C27.0284 30.622 26.8379 30.9287 26.7471 31.271C26.6564 31.6134 26.6697 31.9754 26.7854 32.31C26.901 32.6445 27.1136 32.9359 27.3953 33.1462C28.0153 33.6222 28.7353 34.959 28.7353 37.197V45.2176C28.7353 45.6877 28.9197 46.1384 29.2479 46.4708C29.5761 46.8032 30.0212 46.9899 30.4853 46.9899C30.9494 46.9899 31.3946 46.8032 31.7228 46.4708C32.0509 46.1384 32.2353 45.6877 32.2353 45.2176V37.197C32.2536 35.7867 31.9988 34.3864 31.4853 33.0753C36.1853 32.0626 43.4453 28.9334 43.4453 17.2772Z" fill="#BEBEBE"/>
  </svg>